{
    "accessors" : [
        {
            "bufferView" : 0,
            "componentType" : 5123,
            "count" : 5424,
            "max" : [
                1403
            ],
            "min" : [
                0
            ],
            "type" : "SCALAR"
        },
        {
            "bufferView" : 1,
            "componentType" : 5126,
            "count" : 1404,
            "max" : [
                33.87788772583008,
                12.65931510925293,
                -97.11612701416016
            ],
            "min" : [
                -32.987667083740234,
                -13.408660888671875,
                -166.00465393066406
            ],
            "type" : "VEC3"
        },
        {
            "bufferView" : 2,
            "componentType" : 5126,
            "count" : 1404,
            "max" : [
                0.999908447265625,
                0.999908447265625,
                0.9998779296875
            ],
            "min" : [
                -0.99993896484375,
                -0.999908447265625,
                -0.9989013075828552
            ],
            "type" : "VEC3"
        },
        {
            "bufferView" : 3,
            "componentType" : 5126,
            "count" : 1404,
            "max" : [
                1.0,
                0.9939779043197632,
                0.7306744456291199,
                1.0
            ],
            "min" : [
                -0.9999909400939941,
                -0.9913639426231384,
                -0.5689492225646973,
                -1.0
            ],
            "type" : "VEC4"
        },
        {
            "bufferView" : 4,
            "componentType" : 5126,
            "count" : 1404,
            "max" : [
                0.9662430286407471,
                0.9931529997847974
            ],
            "min" : [
                0.0680759996175766,
                0.5417680144309998
            ],
            "type" : "VEC2"
        },
        {
            "bufferView" : 5,
            "componentType" : 5123,
            "count" : 52776,
            "max" : [
                9703
            ],
            "min" : [
                0
            ],
            "type" : "SCALAR"
        },
        {
            "bufferView" : 6,
            "componentType" : 5126,
            "count" : 9704,
            "max" : [
                34.13792037963867,
                14.468485832214355,
                -102.45111846923828
            ],
            "min" : [
                -33.21645736694336,
                -17.475173950195312,
                -165.17758178710938
            ],
            "type" : "VEC3"
        },
        {
            "bufferView" : 7,
            "componentType" : 5126,
            "count" : 9704,
            "max" : [
                0.999969482421875,
                0.999969482421875,
                0.9927976131439209
            ],
            "min" : [
                -0.999969482421875,
                -0.999969482421875,
                -0.9805597066879272
            ],
            "type" : "VEC3"
        },
        {
            "bufferView" : 8,
            "componentType" : 5126,
            "count" : 9704,
            "max" : [
                1.0,
                0.9997875094413757,
                0.9329202771186829,
                1.0
            ],
            "min" : [
                -1.0,
                -0.9999873638153076,
                -0.9008511304855347,
                -1.0
            ],
            "type" : "VEC4"
        },
        {
            "bufferView" : 9,
            "componentType" : 5126,
            "count" : 9704,
            "max" : [
                0.9931529760360718,
                0.8999760001897812
            ],
            "min" : [
                0.00684700021520257,
                0.5737000107765198
            ],
            "type" : "VEC2"
        }
    ],
    "asset" : {
        "copyright" : "MichaelGossage",
        "generator" : "Khronos Blender glTF 2.0 exporter",
        "version" : "2.0"
    },
    "bufferViews" : [
        {
            "buffer" : 0,
            "byteLength" : 10848,
            "byteOffset" : 0,
            "target" : 34963
        },
        {
            "buffer" : 0,
            "byteLength" : 16848,
            "byteOffset" : 10848,
            "target" : 34962
        },
        {
            "buffer" : 0,
            "byteLength" : 16848,
            "byteOffset" : 27696,
            "target" : 34962
        },
        {
            "buffer" : 0,
            "byteLength" : 22464,
            "byteOffset" : 44544,
            "target" : 34962
        },
        {
            "buffer" : 0,
            "byteLength" : 11232,
            "byteOffset" : 67008,
            "target" : 34962
        },
        {
            "buffer" : 0,
            "byteLength" : 105552,
            "byteOffset" : 78240,
            "target" : 34963
        },
        {
            "buffer" : 0,
            "byteLength" : 116448,
            "byteOffset" : 183792,
            "target" : 34962
        },
        {
            "buffer" : 0,
            "byteLength" : 116448,
            "byteOffset" : 300240,
            "target" : 34962
        },
        {
            "buffer" : 0,
            "byteLength" : 155264,
            "byteOffset" : 416688,
            "target" : 34962
        },
        {
            "buffer" : 0,
            "byteLength" : 77632,
            "byteOffset" : 571952,
            "target" : 34962
        }
    ],
    "buffers" : [
        {
            "byteLength" : 649584,
            "uri" : "data:application/octet-stream;base64,"
        }
    ],
    "images" : [
        {
            "mimeType" : "image/png",
            "name" : "Bake",
            "uri" : "data:image/png;base64,"
        }
    ],
    "materials" : [
        {
            "name" : "Cotton white",
            "pbrMetallicRoughness" : {
                "metallicFactor" : 0.0,
                "roughnessFactor" : 0.10000000149011612
            }
        },
        {
            "name" : "front image",
            "pbrMetallicRoughness" : {
                "baseColorTexture" : {
                    "index" : 0
                },
                "metallicFactor" : 0.0
            }
        },
        {
            "name" : "Ribbing",
            "pbrMetallicRoughness" : {
                "metallicFactor" : 0.0
            }
        }
    ],
    "meshes" : [
        {
            "name" : "Pattern2D_768528.001",
            "primitives" : [
                {
                    "attributes" : {
                        "NORMAL" : 2,
                        "POSITION" : 1,
                        "TANGENT" : 3,
                        "TEXCOORD_0" : 4
                    },
                    "indices" : 0,
                    "material" : 2
                }
            ]
        },
        {
            "name" : "Pattern2D_41597.001",
            "primitives" : [
                {
                    "attributes" : {
                        "NORMAL" : 7,
                        "POSITION" : 6,
                        "TANGENT" : 8,
                        "TEXCOORD_0" : 9
                    },
                    "indices" : 5,
                    "material" : 1
                }
            ]
        }
    ],
    "nodes" : [
        {
            "name" : "Area",
            "rotation" : [
                0.32979658246040344,
                0.10760979354381561,
                0.22842611372470856,
                0.9096570014953613
            ],
            "translation" : [
                -66.17514038085938,
                186.85406494140625,
                81.05946350097656
            ]
        },
        {
            "name" : "Area.001",
            "rotation" : [
                -0.49343860149383545,
                -0.2320234328508377,
                0.020162208005785942,
                0.8380197882652283
            ],
            "translation" : [
                6.758659362792969,
                177.7980499267578,
                -88.63972473144531
            ]
        },
        {
            "name" : "Area.002",
            "rotation" : [
                0.8586893677711487,
                0.4050601124763489,
                0.15865086019039154,
                0.2709405720233917
            ],
            "scale" : [
                0.9999999403953552,
                1.0,
                1.0
            ],
            "translation" : [
                67.56094360351562,
                75.57964324951172,
                64.81724548339844
            ]
        },
        {
            "name" : "Camera",
            "rotation" : [
                0.6830127239227295,
                0.1830126941204071,
                -0.1830126941204071,
                0.6830127239227295
            ],
            "translation" : [
                56.94974136352539,
                -0.548858642578125,
                93.48664093017578
            ]
        },
        {
            "mesh" : 1,
            "name" : "Pattern2D_41597.001",
            "rotation" : [
                0.7071068286895752,
                0.0,
                -0.0,
                0.7071067094802856
            ],
            "translation" : [
                0.0,
                -131.8440704345703,
                -0.0
            ]
        },
        {
            "mesh" : 0,
            "name" : "Pattern2D_768528.001",
            "rotation" : [
                0.7071068286895752,
                0.0,
                -0.0,
                0.7071067094802856
            ],
            "translation" : [
                0.0,
                -131.8440704345703,
                -0.0
            ]
        },
        {
            "name" : "Sun",
            "rotation" : [
                0.02724088355898857,
                0.015780020505189896,
                0.17077066004276276,
                0.9848077297210693
            ]
        }
    ],
    "samplers" : [
        {}
    ],
    "scene" : 0,
    "scenes" : [
        {
            "name" : "Scene",
            "nodes" : [
                4,
                5,
                2,
                1,
                0,
                6,
                3
            ]
        }
    ],
    "textures" : [
        {
            "sampler" : 0,
            "source" : 0
        }
    ]
}
